<svg class="main-svg" xmlns="http://www.w3.org/2000/svg" xmlns:xlink="http://www.w3.org/1999/xlink" width="700" height="500" style="" viewBox="0 0 700 500"><rect x="0" y="0" width="700" height="500" style="fill: rgb(255, 255, 255); fill-opacity: 1;"/><defs id="defs-15ce67"><g class="clips"><clipPath id="clip15ce67polar-for-traces"><path d="M160,0A160,160 0,1,0 -160,-1.9594348786357652e-14A160,160 0,1,0 160,3.9188697572715304e-14Z" transform="translate(160,160)"/></clipPath></g><g class="gradients"/><g class="patterns"/></defs><g class="bglayer"/><g class="layer-below"><g class="imagelayer"/><g class="shapelayer"/></g><g class="cartesianlayer"/><g class="polarlayer"><g class="polar"><g class="polarsublayer draglayer"/><g class="polarsublayer plotbg"><path d="M160,0A160,160 0,1,0 -160,-1.9594348786357652e-14A160,160 0,1,0 160,3.9188697572715304e-14Z" transform="translate(350,260)" style="fill: rgb(229, 236, 246); fill-opacity: 1;"/></g><g class="polarsublayer backplot"><g class="maplayer"/></g><g class="polarsublayer angular-grid" style="fill: none;"><path class="angularaxisgrid" d="M350,260L510,260" style="stroke: rgb(255, 255, 255); stroke-opacity: 1; stroke-width: 1px;"/><path class="angularaxisgrid" d="M350,260L399.44271909999156,107.83095739277545" style="stroke: rgb(255, 255, 255); stroke-opacity: 1; stroke-width: 1px;"/><path class="angularaxisgrid" d="M350,260L220.55728090000844,165.95435963320426" style="stroke: rgb(255, 255, 255); stroke-opacity: 1; stroke-width: 1px;"/><path class="angularaxisgrid" d="M350,260L220.5572809000084,354.0456403667957" style="stroke: rgb(255, 255, 255); stroke-opacity: 1; stroke-width: 1px;"/><path class="angularaxisgrid" d="M350,260L399.44271909999156,412.1690426072246" style="stroke: rgb(255, 255, 255); stroke-opacity: 1; stroke-width: 1px;"/></g><g class="polarsublayer radial-grid" transform="translate(350,260)" style="fill: none;"><path class="xgrid" d="M32,0A32,32 0,1,0 -32,-3.91886975727153e-15A32,32 0,1,0 32,7.83773951454306e-15Z" style="stroke: rgb(255, 255, 255); stroke-opacity: 1; stroke-width: 1px;"/><path class="xgrid" d="M64,0A64,64 0,1,0 -64,-7.83773951454306e-15A64,64 0,1,0 64,1.567547902908612e-14Z" style="stroke: rgb(255, 255, 255); stroke-opacity: 1; stroke-width: 1px;"/><path class="xgrid" d="M96,0A96,96 0,1,0 -96,-1.175660927181459e-14A96,96 0,1,0 96,2.351321854362918e-14Z" style="stroke: rgb(255, 255, 255); stroke-opacity: 1; stroke-width: 1px;"/><path class="xgrid" d="M128,0A128,128 0,1,0 -128,-1.567547902908612e-14A128,128 0,1,0 128,3.135095805817224e-14Z" style="stroke: rgb(255, 255, 255); stroke-opacity: 1; stroke-width: 1px;"/></g><g class="polarsublayer frontplot" transform="translate(190,100)"><g class="barlayer"/><g class="scatterlayer"><g class="trace scatter trace3e5581" style="stroke-miterlimit: 2; opacity: 1;"><g class="fills" clip-path="url(#clip15ce67polar-for-traces)"><g><path class="js-fill" d="M320,160L202.74,28.47L41,73.54L56.96,234.86L200.59,284.93Z" style="fill: rgb(99, 110, 250); fill-opacity: 0.5; stroke-width: 0;"/></g></g><g class="errorbars"/><g class="lines"><path class="js-line" d="M320,160L202.74,28.47L41,73.54L56.96,234.86L200.59,284.93" clip-path="url(#clip15ce67polar-for-traces)" style="vector-effect: none; fill: none; stroke: rgb(99, 110, 250); stroke-opacity: 1; stroke-width: 2px; opacity: 1;"/></g><g class="points"><path class="point" transform="translate(320,160)" d="M3,0A3,3 0 1,1 0,-3A3,3 0 0,1 3,0Z" style="opacity: 1; stroke-width: 0px; fill: rgb(99, 110, 250); fill-opacity: 1;"/><path class="point" transform="translate(202.74,28.47)" d="M3,0A3,3 0 1,1 0,-3A3,3 0 0,1 3,0Z" style="opacity: 1; stroke-width: 0px; fill: rgb(99, 110, 250); fill-opacity: 1;"/><path class="point" transform="translate(41,73.54)" d="M3,0A3,3 0 1,1 0,-3A3,3 0 0,1 3,0Z" style="opacity: 1; stroke-width: 0px; fill: rgb(99, 110, 250); fill-opacity: 1;"/><path class="point" transform="translate(56.96,234.86)" d="M3,0A3,3 0 1,1 0,-3A3,3 0 0,1 3,0Z" style="opacity: 1; stroke-width: 0px; fill: rgb(99, 110, 250); fill-opacity: 1;"/><path class="point" transform="translate(200.59,284.93)" d="M3,0A3,3 0 1,1 0,-3A3,3 0 0,1 3,0Z" style="opacity: 1; stroke-width: 0px; fill: rgb(99, 110, 250); fill-opacity: 1;"/></g><g class="text"/></g><g class="trace scatter trace0797a2" style="stroke-miterlimit: 2; opacity: 1;"><g class="fills" clip-path="url(#clip15ce67polar-for-traces)"><g><path class="js-fill" d="M319.11,160L204.13,24.19L51.83,81.41L70.74,224.85L194.91,267.44Z" style="fill: rgb(239, 85, 59); fill-opacity: 0.5; stroke-width: 0;"/></g></g><g class="errorbars"/><g class="lines"><path class="js-line" d="M319.11,160L204.13,24.19L51.83,81.41L70.74,224.85L194.91,267.44" clip-path="url(#clip15ce67polar-for-traces)" style="vector-effect: none; fill: none; stroke: rgb(239, 85, 59); stroke-opacity: 1; stroke-width: 2px; opacity: 1;"/></g><g class="points"><path class="point" transform="translate(319.11,160)" d="M3,0A3,3 0 1,1 0,-3A3,3 0 0,1 3,0Z" style="opacity: 1; stroke-width: 0px; fill: rgb(239, 85, 59); fill-opacity: 1;"/><path class="point" transform="translate(204.13,24.19)" d="M3,0A3,3 0 1,1 0,-3A3,3 0 0,1 3,0Z" style="opacity: 1; stroke-width: 0px; fill: rgb(239, 85, 59); fill-opacity: 1;"/><path class="point" transform="translate(51.83,81.41)" d="M3,0A3,3 0 1,1 0,-3A3,3 0 0,1 3,0Z" style="opacity: 1; stroke-width: 0px; fill: rgb(239, 85, 59); fill-opacity: 1;"/><path class="point" transform="translate(70.74,224.85)" d="M3,0A3,3 0 1,1 0,-3A3,3 0 0,1 3,0Z" style="opacity: 1; stroke-width: 0px; fill: rgb(239, 85, 59); fill-opacity: 1;"/><path class="point" transform="translate(194.91,267.44)" d="M3,0A3,3 0 1,1 0,-3A3,3 0 0,1 3,0Z" style="opacity: 1; stroke-width: 0px; fill: rgb(239, 85, 59); fill-opacity: 1;"/></g><g class="text"/></g><g class="trace scatter trace0e531b" style="stroke-miterlimit: 2; opacity: 1;"><g class="fills" clip-path="url(#clip15ce67polar-for-traces)"><g><path class="js-fill" d="M218.09,160L193.25,57.67L70.58,95.04L65.33,228.78L197.14,274.29Z" style="fill: rgb(0, 204, 150); fill-opacity: 0.5; stroke-width: 0;"/></g></g><g class="errorbars"/><g class="lines"><path class="js-line" d="M218.09,160L193.25,57.67L70.58,95.04L65.33,228.78L197.14,274.29" clip-path="url(#clip15ce67polar-for-traces)" style="vector-effect: none; fill: none; stroke: rgb(0, 204, 150); stroke-opacity: 1; stroke-width: 2px; opacity: 1;"/></g><g class="points"><path class="point" transform="translate(218.09,160)" d="M3,0A3,3 0 1,1 0,-3A3,3 0 0,1 3,0Z" style="opacity: 1; stroke-width: 0px; fill: rgb(0, 204, 150); fill-opacity: 1;"/><path class="point" transform="translate(193.25,57.67)" d="M3,0A3,3 0 1,1 0,-3A3,3 0 0,1 3,0Z" style="opacity: 1; stroke-width: 0px; fill: rgb(0, 204, 150); fill-opacity: 1;"/><path class="point" transform="translate(70.58,95.04)" d="M3,0A3,3 0 1,1 0,-3A3,3 0 0,1 3,0Z" style="opacity: 1; stroke-width: 0px; fill: rgb(0, 204, 150); fill-opacity: 1;"/><path class="point" transform="translate(65.33,228.78)" d="M3,0A3,3 0 1,1 0,-3A3,3 0 0,1 3,0Z" style="opacity: 1; stroke-width: 0px; fill: rgb(0, 204, 150); fill-opacity: 1;"/><path class="point" transform="translate(197.14,274.29)" d="M3,0A3,3 0 1,1 0,-3A3,3 0 0,1 3,0Z" style="opacity: 1; stroke-width: 0px; fill: rgb(0, 204, 150); fill-opacity: 1;"/></g><g class="text"/></g></g></g><g class="polarsublayer angular-line"><path d="M160,0A160,160 0,1,0 -160,-1.9594348786357652e-14A160,160 0,1,0 160,3.9188697572715304e-14Z" transform="translate(350,260)" stroke-width="1" style="fill: none; stroke: rgb(255, 255, 255); stroke-opacity: 1;"/></g><g class="polarsublayer radial-line"><line x1="0" y1="0" x2="160" y2="0" transform="translate(350,260)" stroke-width="1" style="fill: none; stroke: rgb(255, 255, 255); stroke-opacity: 1;"/></g><g class="polarsublayer angular-axis"><g class="angularaxistick"><text text-anchor="start" x="2.9000000000000004" y="4.199999999999999" transform="translate(510,260)" style="font-family: Arial, sans-serif; font-size: 12px; fill: rgb(42, 63, 95); fill-opacity: 1; white-space: pre; opacity: 1;">Tenure</text></g><g class="angularaxistick"><text text-anchor="start" x="0.8961492836873477" y="-3.742728159989535" transform="translate(399.44271909999156,107.83095739277545)" style="font-family: Arial, sans-serif; font-size: 12px; fill: rgb(42, 63, 95); fill-opacity: 1; white-space: pre; opacity: 1;">Age</text></g><g class="angularaxistick"><text text-anchor="end" x="-2.3461492836873474" y="0.2826095392246697" transform="translate(220.55728090000844,165.95435963320426)" style="font-family: Arial, sans-serif; font-size: 12px; fill: rgb(42, 63, 95); fill-opacity: 1; white-space: pre; opacity: 1;">Wealth</text></g><g class="angularaxistick"><text text-anchor="end" x="-2.346149283687348" y="12.155871635532627" transform="translate(220.5572809000084,354.0456403667957)" style="font-family: Arial, sans-serif; font-size: 12px; fill: rgb(42, 63, 95); fill-opacity: 1; white-space: pre; opacity: 1;">Demanding</text></g><g class="angularaxistick"><text text-anchor="start" x="0.896149283687347" y="15.468613469172567" transform="translate(399.44271909999156,412.1690426072246)" style="font-family: Arial, sans-serif; font-size: 12px; fill: rgb(42, 63, 95); fill-opacity: 1; white-space: pre; opacity: 1;">Digitally active</text></g></g><g class="polarsublayer radial-axis" transform="translate(350,260)"><g class="xtick"><text text-anchor="middle" x="0" y="14.9" transform="" style="font-family: Arial, sans-serif; font-size: 12px; fill: rgb(42, 63, 95); fill-opacity: 1; white-space: pre; opacity: 1;">0</text></g><g class="xtick"><text text-anchor="middle" x="0" y="14.9" transform="translate(32,0)" style="font-family: Arial, sans-serif; font-size: 12px; fill: rgb(42, 63, 95); fill-opacity: 1; white-space: pre; opacity: 1;">1</text></g><g class="xtick"><text text-anchor="middle" x="0" y="14.9" transform="translate(64,0)" style="font-family: Arial, sans-serif; font-size: 12px; fill: rgb(42, 63, 95); fill-opacity: 1; white-space: pre; opacity: 1;">2</text></g><g class="xtick"><text text-anchor="middle" x="0" y="14.9" transform="translate(96,0)" style="font-family: Arial, sans-serif; font-size: 12px; fill: rgb(42, 63, 95); fill-opacity: 1; white-space: pre; opacity: 1;">3</text></g><g class="xtick"><text text-anchor="middle" x="0" y="14.9" transform="translate(128,0)" style="font-family: Arial, sans-serif; font-size: 12px; fill: rgb(42, 63, 95); fill-opacity: 1; white-space: pre; opacity: 1;">4</text></g><g class="xtick"><text text-anchor="middle" x="0" y="14.9" transform="translate(160,0)" style="font-family: Arial, sans-serif; font-size: 12px; fill: rgb(42, 63, 95); fill-opacity: 1; white-space: pre; opacity: 1;">5</text></g></g></g></g><g class="smithlayer"/><g class="ternarylayer"/><g class="geolayer"/><g class="funnelarealayer"/><g class="pielayer"/><g class="iciclelayer"/><g class="treemaplayer"/><g class="sunburstlayer"/><g class="glimages"/><defs id="topdefs-15ce67"><g class="clips"/></defs><g class="layer-above"><g class="imagelayer"/><g class="shapelayer"/></g><g class="infolayer"><g class="g-gtitle"/><g class="g-polartitle"/></g></svg>